<svg xmlns="http://www.w3.org/2000/svg" viewBox="0 80 300 300">
    <defs>
        <linearGradient id="silver-grad" x1="0%" y1="0%" x2="0%" y2="100%">
            <stop offset="0%" style="stop-color:#f8fafc;stop-opacity:1" />
            <stop offset="50%" style="stop-color:#94a3b8;stop-opacity:1" />
            <stop offset="100%" style="stop-color:#cbd5e1;stop-opacity:1" />
        </linearGradient>
        <linearGradient id="blue-grad" x1="0%" y1="0%" x2="100%" y2="100%">
            <stop offset="0%" style="stop-color:#38bdf8;stop-opacity:1" />
            <stop offset="100%" style="stop-color:#0284c7;stop-opacity:1" />
        </linearGradient>
    </defs>
    <g transform="translate(150, 230)">
        <path d="M -130,0 A 130,130 0 1,1 130,0" fill="none" stroke="url(#silver-grad)" stroke-width="15" stroke-linecap="round" />
        <g transform="translate(0, 10)">
            <path d="M -40,-100 C -60,-100 -80,-80 -80,-50 C -80,-30 -70,-20 -75,-10 C -85,-10 -95,-5 -95,10 C -95,20 -85,25 -80,25 L -80,40 C -80,60 -60,80 -40,80 L 20,80 C 40,80 60,60 60,40 C 60,20 80,0 80,-40 C 80,-80 40,-100 -40,-100 Z" fill="url(#blue-grad)" />
            <g stroke="#ffffff" stroke-width="3" stroke-linecap="round" opacity="0.8">
                <path d="M -20,-80 L -20,-30 M 10,-70 L 10,-20 M -40,-60 L -40,-10" />
                <circle cx="-20" cy="-80" r="5" fill="#ffffff" />
                <circle cx="10" cy="-70" r="5" fill="#ffffff" />
                <circle cx="-40" cy="-60" r="5" fill="#ffffff" />
            </g>
        </g>
    </g>
</svg>
